# xmcd
#
# Track frame offsets: 
#        150
#        18530
#        33760
#        48708
#        63803
#        85655
#        100015
#        116798
#        134903
#        142920
#
# Disc length: 2059 seconds
#
# Revision: 2
# Processed by: cddbd v1.5.2PL0 Copyright (c) Steve Scherf et al.
# Submitted via: ExactAudioCopy v0.99pb5
#
DISCID=8408090a
DTITLE=Chipmunks - Urban Chipmunk
DYEAR=2005
DGENRE=other
TTITLE0=The Devil went Down to Georgia
TTITLE1=Mammas Don't let Your Babies Grow up to be Chipmunks
TTITLE2=The Gambler
TTITLE3=Lunchbox
TTITLE4=Another Somebody Done Somebody Wrong Song
TTITLE5=Boot Scootin' Boogie
TTITLE6=I Love a Rainy Night
TTITLE7=Coward of the County
TTITLE8=Thank God I'm a Country Boy
TTITLE9=On the Road Again
EXTD=
EXTT0=
EXTT1=
EXTT2=
EXTT3=
EXTT4=
EXTT5=
EXTT6=
EXTT7=
EXTT8=
EXTT9=
PLAYORDER=
